<?xml version="1.0" standalone="no"?>
<!DOCTYPE svg PUBLIC "-//W3C//DTD SVG 20010904//EN"
 "http://www.w3.org/TR/2001/REC-SVG-20010904/DTD/svg10.dtd">
<svg version="1.0" xmlns="http://www.w3.org/2000/svg"
 width="256.000000pt" height="256.000000pt" viewBox="0 0 256.000000 256.000000"
 preserveAspectRatio="xMidYMid meet">

<g transform="translate(0.000000,256.000000) scale(0.100000,-0.100000)"
fill="#000000" stroke="none">
<path d="M790 2372 c-170 -53 -302 -187 -344 -350 -13 -50 -16 -134 -16 -501
l0 -442 88 3 87 3 5 450 c5 445 5 451 28 497 28 56 92 122 143 148 65 34 153
40 562 40 l397 0 0 85 0 85 -447 -1 c-390 -1 -455 -3 -503 -17z"/>
<path d="M1082 2043 l3 -88 450 -5 c434 -5 452 -6 497 -27 53 -24 121 -90 148
-144 34 -65 40 -153 40 -561 l0 -398 85 0 85 0 0 441 c0 485 -3 513 -61 616
-38 67 -126 153 -193 192 -104 58 -130 61 -615 61 l-442 0 3 -87z"/>
<path d="M170 1299 c0 -484 3 -514 61 -615 37 -66 119 -147 189 -188 110 -64
128 -66 619 -66 l442 0 -3 88 -3 87 -450 5 c-430 5 -452 6 -495 26 -56 26
-122 92 -150 148 -35 73 -40 145 -40 559 l0 397 -85 0 -85 0 0 -441z"/>
<path d="M1955 1468 c-3 -7 -6 -211 -7 -453 -3 -437 -3 -440 -26 -487 -31 -63
-96 -126 -162 -157 l-55 -26 -442 -3 -443 -3 0 -85 0 -84 443 0 c483 0 497 1
613 62 64 34 154 123 193 192 58 104 61 130 61 615 l0 441 -85 0 c-59 0 -87
-4 -90 -12z"/>
</g>
</svg>
